<?xml version="1.0" encoding="utf-8" ?>	<!-- Generator: Assembly 1.8 - http://assemblyapp.co -->	<svg version="1.1" xmlns="http://www.w3.org/2000/svg" xmlns:xlink="http://www.w3.org/1999/xlink" width="2048.00" height="2048.00" viewBox="0 0 2048.0 2048.0">		<rect x="0" y="0" width="2048.00" height="2048.00" fill="transparent" />		<g id="document" transform="matrix(1,0,0,1,1024.0,1024.0)">			<path d="M949.721,15.5038 C949.721,529.373 533.148,945.945 19.2794,945.945 C-494.589,945.945 -911.162,529.373 -911.162,15.5038 C-911.162,-498.365 -494.589,-914.938 19.2794,-914.938 C533.148,-914.938 949.721,-498.365 949.721,15.5038 Z " fill="#343838" fill-opacity="1.00" />			<path d="M-1266.16,-1871.07 C-1261.04,-1870.99 -1255.1,-1870.31 -1246.42,-1869.13 C-1210.57,-1864.27 -1190.25,-1859.62 -1189.06,-1856.07 C-1188.49,-1854.4 -1184.31,-1853.07 -1179.77,-1853.08 C-1166.54,-1853.09 -1142.76,-1843.24 -1134.01,-1834.12 C-1127.64,-1827.46 -1125.68,-1821.81 -1122.4,-1796.97 C-1121.78,-1793.2 -1121.34,-1789.35 -1121.05,-1785.46 C-1121.02,-1785.04 -1120.98,-1784.62 -1120.95,-1784.2 C-1119,-1767.31 -1118.15,-1754.37 -1119.02,-1744.25 C-1119.01,-1744.13 -1119.03,-1743.99 -1119.02,-1743.86 C-1118.92,-1709.65 -1154.19,-1692.16 -1183.73,-1688.14 C-1191.42,-1684.29 -1198.12,-1684.51 -1204.44,-1686.4 C-1210.96,-1686.05 -1214.3,-1687.66 -1221.56,-1692.01 C-1226.65,-1695.06 -1231.56,-1697.07 -1236.75,-1698.01 C-1241.97,-1693.99 -1248.91,-1695.59 -1254.84,-1698.78 C-1266.09,-1699.83 -1272.54,-1704.63 -1275.93,-1714.35 L-1278.44,-1721.51 C-1290.23,-1697.23 -1293.09,-1668.58 -1298.27,-1642.38 C-1299.04,-1630.88 -1299.08,-1619.44 -1298.76,-1607.94 C-1298.38,-1600.51 -1297.83,-1591.94 -1297.11,-1580.95 C-1296.43,-1570.59 -1295.88,-1560.58 -1295.27,-1550.58 C-1294.98,-1545.73 -1294.66,-1540.65 -1294.4,-1536.26 C-1294.19,-1532.61 -1293.98,-1528.98 -1293.82,-1525.33 C-1293.79,-1524.59 -1293.75,-1523.84 -1293.72,-1523.1 C-1293.44,-1517.81 -1293.04,-1510.58 -1292.95,-1507.91 L-1292.46,-1493.89 C-1291.86,-1493.43 -1291.15,-1492.7 -1290.43,-1491.47 L-1284.53,-1498.43 C-1266.13,-1520.17 -1253.73,-1526.49 -1222.33,-1529.97 C-1194.45,-1533.06 -1176.91,-1525.55 -1148.13,-1498.05 L-1124.04,-1475.02 L-1113.69,-1480.34 C-1102.3,-1486.24 -1041.24,-1506.37 -1034.75,-1506.37 C-1032.49,-1506.37 -1030.69,-1505.11 -1030.69,-1503.66 C-1030.69,-1502.2 -1044.19,-1498.72 -1057.39,-1494.85 C-1069.21,-1491.35 -1078.99,-1486.61 -1095.79,-1480.15 C-1102.53,-1477.69 -1105.63,-1476.63 -1109.43,-1475.22 C-1112.88,-1469.81 -1128.72,-1452.89 -1130.81,-1421.33 C-1147.01,-1495.01 -1189.74,-1527.1 -1224.46,-1522.81 C-1232.34,-1521.26 -1231.37,-1521.42 -1236.16,-1520.29 C-1259.74,-1514.55 -1262.56,-1505.6 -1279.79,-1494.08 C-1285.12,-1486.44 -1286.78,-1482.96 -1288.3,-1481.79 C-1295.79,-1471.52 -1292.58,-1460.69 -1309.39,-1435.45 C-1325.74,-1416.39 -1335.55,-1399.23 -1353.99,-1390.57 C-1443.15,-1361.96 -1516.68,-1428.15 -1481.39,-1422.39 C-1374.94,-1405.04 -1315.56,-1609.16 -1335.51,-1695.69 C-1329.14,-1733.6 -1386.62,-1652.7 -1368.21,-1692.4 C-1357.34,-1719.93 -1336.22,-1742.3 -1323.03,-1768.24 C-1308.48,-1796.13 -1302.91,-1766.25 -1290.24,-1751.99 C-1285.51,-1733.07 -1259.05,-1755.19 -1264.31,-1742.89 C-1267.94,-1738.8 -1271.04,-1734.48 -1273.79,-1729.93 C-1272.38,-1726.17 -1269.06,-1717.71 -1262.96,-1715.42 C-1259.8,-1713.13 -1256.96,-1711.74 -1254.25,-1710.78 C-1250.86,-1724.9 -1240.42,-1744.54 -1236.94,-1759.73 C-1206.71,-1790.52 -1233.37,-1733.26 -1229.1,-1717.26 C-1224.94,-1683.84 -1211.71,-1727.4 -1210.14,-1738.64 C-1203.7,-1758.66 -1208.26,-1818.44 -1174.15,-1791.17 C-1172.87,-1781.63 -1190.08,-1746.25 -1184.99,-1725.29 C-1186.4,-1691.92 -1175.03,-1729.78 -1174.64,-1742.02 C-1169.91,-1750.81 -1171.68,-1802.11 -1151.03,-1821.83 C-1147.41,-1817.98 -1142.56,-1815.24 -1138.84,-1814.67 C-1138.76,-1815.78 -1138.69,-1816.94 -1138.46,-1818.54 C-1137.39,-1825.8 -1138.67,-1829.72 -1143.39,-1833.73 C-1152.25,-1841.21 -1169.17,-1844.9 -1179.38,-1846.89 C-1184.25,-1846.89 -1189,-1848.1 -1189.92,-1849.6 C-1190.85,-1851.09 -1194.42,-1853.05 -1197.85,-1853.95 C-1201.29,-1854.85 -1228.12,-1861.85 -1251.06,-1864.11 C-1267.79,-1865.75 -1275.66,-1864.83 -1292.56,-1859.37 C-1328.27,-1847.83 -1335.39,-1843 -1343.25,-1824.64 C-1347.12,-1815.61 -1357.1,-1794.11 -1365.4,-1776.85 C-1373.71,-1759.59 -1380.49,-1744.62 -1380.49,-1743.57 C-1380.49,-1742.53 -1382.61,-1739.2 -1385.24,-1736.22 C-1387.86,-1733.24 -1400.14,-1715.48 -1412.52,-1696.75 C-1424.89,-1678.02 -1444.07,-1649.46 -1455.08,-1633.29 C-1466.09,-1617.12 -1476.78,-1600.4 -1478.88,-1596.14 C-1480.97,-1591.89 -1486.17,-1582.83 -1490.39,-1576.02 C-1509.92,-1544.5 -1525.05,-1500.56 -1528.99,-1464.1 C-1530.55,-1449.62 -1534.5,-1433.48 -1538.18,-1426.27 C-1544.89,-1413.12 -1546.78,-1390.47 -1541.47,-1387.19 C-1540.09,-1386.34 -1538.97,-1384.18 -1538.56,-1381.97 C-1532.19,-1373.63 -1522.81,-1356.92 -1505.09,-1350.43 C-1444.33,-1325.72 -1334.37,-1336.76 -1311.42,-1350.14 C-1352.12,-1312.5 -1363.97,-1309.99 -1367.14,-1277.2 C-1330.76,-1273.46 -1183.22,-1269.93 -1158.18,-1308.73 C-1159.87,-1339.67 -1263.27,-1336.49 -1276.78,-1412.53 C-1260.22,-1393.26 -1207.83,-1307.07 -1101.1,-1382.64 C-1087.15,-1392.52 -979.886,-1415.23 -1073.53,-1349.36 C-1058.95,-1326.83 -1023.92,-1328.79 -1024,-1302.45 L-1024.39,-1149.7 C-1024.55,-1149.92 -1024.71,-1150.15 -1024.87,-1150.37 C-1025.7,-1142.54 -1040.07,-1154.83 -1055.54,-1184.91 L-1070.43,-1213.83 L-1071.4,-1213.83 C-1105.22,-1211.59 -1138.22,-1202.7 -1171.62,-1197.48 C-1186.52,-1196.69 -1201.4,-1196.98 -1216.22,-1198.26 C-1216.82,-1198.3 -1217.45,-1198.4 -1218.06,-1198.44 C-1219.83,-1198.61 -1221.61,-1198.74 -1223.38,-1198.93 C-1224.24,-1199.01 -1225.12,-1199.12 -1225.99,-1199.22 C-1234.92,-1200.19 -1244.44,-1201.53 -1255.11,-1203.38 C-1305.85,-1212.16 -1373.14,-1240.5 -1419.56,-1272.64 C-1435.81,-1283.89 -1459.81,-1298.12 -1472.87,-1304.28 C-1504.66,-1319.28 -1537.93,-1351.89 -1545.52,-1375.38 C-1552.42,-1396.74 -1552.07,-1409.62 -1544.06,-1427.72 C-1540.4,-1435.99 -1536.33,-1453.22 -1534.97,-1466.02 C-1531.3,-1500.49 -1515.75,-1545.06 -1496.57,-1576.01 C-1492.34,-1582.83 -1487.15,-1591.88 -1485.05,-1596.14 C-1482.96,-1600.39 -1472.26,-1617.11 -1461.26,-1633.28 C-1450.25,-1649.46 -1431.11,-1678.02 -1418.69,-1696.74 C-1406.27,-1715.47 -1394.2,-1733.58 -1391.89,-1736.99 C-1389.59,-1740.39 -1379.76,-1759.89 -1370.13,-1780.33 C-1340.49,-1843.2 -1339.59,-1844.76 -1326.4,-1852.11 C-1319.64,-1855.87 -1304.59,-1862 -1292.93,-1865.75 C-1280.82,-1869.64 -1274.66,-1871.2 -1266.13,-1871.07 L-1266.14,-1871.07 L-1266.16,-1871.07 Z M-1140.1,-1771.14 C-1132.19,-1764.13 -1138.38,-1714.09 -1142.73,-1735.61 L-1140.1,-1771.14 Z " fill="#000000" fill-opacity="1.00" />			<g>				<defs>					<filter id="grMaW7ib" x="-8.45%" y="-13.03%" width="142.05%" height="145.26%" filterUnits="objectBoundingBox">						<feOffset dx="17.88" dy="6.88" in="SourceAlpha" result="shadowOffsetOuter1" />						<feGaussianBlur stdDeviation="17.99" in="shadowOffsetOuter1" result="shadowBlurOuter1" />						<feFlood flood-color="#343838" flood-opacity="1.00" />						<feComposite in2="shadowBlurOuter1" operator="in" />						<feMerge>							<feMergeNode />							<feMergeNode in="SourceGraphic" />						</feMerge>					</filter>				</defs>				<path d="M-2001.37,94.3686 C-2001.37,81.1646 -2003.21,69.1491 -2006.91,58.3219 C-2010.61,47.4947 -2016.42,38.252 -2024.34,30.5937 C-2032.26,22.9354 -2042.36,17.0597 -2054.64,12.9665 C-2066.92,8.87327 -2081.51,6.82667 -2098.42,6.82667 C-2116.64,6.82667 -2132.61,8.27909 -2146.35,11.184 C-2147.67,11.448 -2148.72,12.1082 -2149.51,13.1645 C-2150.31,14.2209 -2150.57,15.4092 -2150.31,16.7296 L-2142.38,63.4714 C-2142.12,64.7918 -2141.46,65.8481 -2140.4,66.6404 C-2139.35,67.4326 -2138.16,67.5646 -2136.84,67.0365 C-2127.6,64.9238 -2119.01,63.8675 -2111.09,63.8675 C-2102.64,63.8675 -2096.43,64.4617 -2092.47,65.6501 C-2088.51,66.8384 -2085.74,68.2248 -2084.15,69.8093 C-2101.85,70.3374 -2117.76,72.3841 -2131.89,75.9491 C-2146.02,79.5142 -2158.03,84.5316 -2167.93,91.0016 C-2177.84,97.4715 -2185.49,105.592 -2190.91,115.363 C-2196.32,125.134 -2199.03,136.489 -2199.03,149.429 C-2199.03,157.615 -2197.44,165.604 -2194.28,173.394 C-2191.11,181.184 -2186.55,188.05 -2180.61,193.992 C-2174.67,199.934 -2167.27,204.687 -2158.43,208.252 C-2149.58,211.817 -2139.61,213.6 -2128.52,213.6 C-2118.48,213.6 -2108.91,212.279 -2099.8,209.639 C-2090.69,206.998 -2082.57,202.641 -2075.44,196.567 L-2072.67,212.808 C-2072.67,213.864 -2072.14,214.788 -2071.08,215.58 C-2070.03,216.373 -2068.97,216.637 -2067.91,216.373 L-2002.55,208.846 C-2001.23,208.582 -2000.18,207.856 -1999.39,206.668 C-1998.59,205.479 -1998.33,204.225 -1998.59,202.905 C-1999.91,198.679 -2000.71,192.474 -2000.97,184.287 C-2001.23,176.101 -2001.37,167.122 -2001.37,157.351 L-2001.37,94.3686 Z M-2080.59,129.623 C-2080.59,131.207 -2080.59,132.792 -2080.59,134.376 C-2080.59,135.697 -2080.85,137.149 -2081.38,138.734 C-2082.7,143.223 -2085.34,147.052 -2089.3,150.221 C-2093.27,153.39 -2097.62,154.974 -2102.38,154.974 C-2112.94,154.974 -2118.22,150.881 -2118.22,142.695 C-2118.22,130.811 -2105.68,124.473 -2080.59,123.681 L-2080.59,129.623 Z " fill="#bef200" fill-opacity="1.00" stroke-width="13.65" stroke="#343838" stroke-linecap="square" stroke-linejoin="miter" filter="url(#grMaW7ib)" />				<defs>					<filter id="UNdyiIV8" x="-5.25%" y="-13.04%" width="126.10%" height="145.28%" filterUnits="objectBoundingBox">						<feOffset dx="17.88" dy="6.88" in="SourceAlpha" result="shadowOffsetOuter1" />						<feGaussianBlur stdDeviation="17.99" in="shadowOffsetOuter1" result="shadowBlurOuter1" />						<feFlood flood-color="#343838" flood-opacity="1.00" />						<feComposite in2="shadowBlurOuter1" operator="in" />						<feMerge>							<feMergeNode />							<feMergeNode in="SourceGraphic" />						</feMerge>					</filter>				</defs>				<path d="M-1980.12,204.176 C-1980.12,207.344 -1978.54,208.929 -1975.37,208.929 L-1905.65,208.929 C-1902.75,208.929 -1901.3,207.344 -1901.3,204.176 L-1901.3,99.6006 C-1901.3,97.488 -1901.23,95.3754 -1901.1,93.2627 C-1900.97,91.1501 -1900.5,89.1695 -1899.71,87.321 C-1898.66,84.9443 -1896.74,82.0394 -1893.97,78.6064 C-1891.2,75.1734 -1886.77,73.4569 -1880.7,73.4569 C-1867.23,73.4569 -1860.5,84.4161 -1860.5,106.335 L-1860.5,204.176 C-1860.5,207.344 -1859.04,208.929 -1856.14,208.929 L-1786.42,208.929 C-1783.25,208.929 -1781.67,207.344 -1781.67,204.176 L-1781.67,100.393 C-1781.67,98.5443 -1781.54,96.4317 -1781.27,94.055 C-1781.01,91.6783 -1780.61,89.5656 -1780.09,87.7171 C-1778.76,83.7559 -1776.59,80.3889 -1773.55,77.6161 C-1770.51,74.8433 -1766.49,73.4569 -1761.47,73.4569 C-1747.74,73.4569 -1740.87,84.4161 -1740.87,106.335 L-1740.87,166.544 C-1740.87,172.882 -1740.28,178.956 -1739.09,184.766 C-1737.9,190.576 -1736.51,195.659 -1734.93,200.016 C-1733.34,204.374 -1731.96,207.873 -1730.77,210.513 C-1729.58,213.154 -1728.99,214.475 -1728.99,214.475 C-1727.67,215.795 -1726.21,216.455 -1724.63,216.455 L-1654.91,208.929 C-1653.06,208.665 -1651.74,207.873 -1650.95,206.552 C-1650.16,205.232 -1650.16,203.911 -1650.95,202.591 C-1651.22,202.063 -1652.14,199.95 -1653.72,196.253 C-1655.31,192.556 -1657.09,187.737 -1659.07,181.795 C-1661.05,175.853 -1662.04,170.77 -1662.04,166.544 L-1662.04,95.6394 C-1662.04,66.3268 -1668.64,44.2102 -1681.85,29.2898 C-1695.05,14.3694 -1712.88,6.90919 -1735.32,6.90919 C-1750.11,6.90919 -1762.79,9.68201 -1773.35,15.2277 C-1777.58,17.3403 -1781.74,20.1131 -1785.83,23.5461 C-1789.92,26.9791 -1793.95,30.8083 -1797.91,35.0335 C-1803.46,25.5267 -1811.05,18.4626 -1820.69,13.8412 C-1830.33,9.21987 -1841.35,6.90919 -1853.76,6.90919 C-1861.42,6.90919 -1868.29,7.63541 -1874.36,9.08783 C-1880.44,10.5403 -1885.85,12.3888 -1890.6,14.6335 C-1895.36,16.8781 -1899.38,19.3869 -1902.68,22.1597 C-1905.98,24.9325 -1908.69,27.5073 -1910.8,29.884 L-1912.39,15.6238 C-1912.92,12.7189 -1914.37,11.2665 -1916.75,11.2665 L-1976.96,11.2665 C-1980.12,11.2665 -1981.71,12.983 -1981.71,16.416 C-1981.18,24.8665 -1980.78,34.4393 -1980.52,45.1345 C-1980.26,55.8297 -1980.12,67.9112 -1980.12,81.3792 L-1980.12,204.176 Z " fill="#bef200" fill-opacity="1.00" stroke-width="13.65" stroke="#343838" stroke-linecap="square" stroke-linejoin="miter" filter="url(#UNdyiIV8)" />				<defs>					<filter id="grcP0BcA" x="-8.12%" y="-13.29%" width="140.42%" height="146.16%" filterUnits="objectBoundingBox">						<feOffset dx="17.88" dy="6.88" in="SourceAlpha" result="shadowOffsetOuter1" />						<feGaussianBlur stdDeviation="17.99" in="shadowOffsetOuter1" result="shadowBlurOuter1" />						<feFlood flood-color="#343838" flood-opacity="1.00" />						<feComposite in2="shadowBlurOuter1" operator="in" />						<feMerge>							<feMergeNode />							<feMergeNode in="SourceGraphic" />						</feMerge>					</filter>				</defs>				<path d="M-1432.72,15.9374 C-1432.72,12.7684 -1434.31,11.184 -1437.48,11.184 L-1509.57,11.184 C-1512.74,11.184 -1514.32,12.7684 -1514.32,15.9374 L-1514.32,124.077 C-1514.32,125.398 -1514.32,126.586 -1514.32,127.642 C-1514.32,128.699 -1514.59,129.755 -1515.12,130.811 C-1516.44,133.98 -1518.68,137.413 -1521.85,141.11 C-1525.02,144.807 -1529.9,146.656 -1536.51,146.656 C-1551.29,146.656 -1558.69,135.697 -1558.69,113.778 L-1558.69,15.9374 C-1558.69,12.7684 -1560.27,11.184 -1563.44,11.184 L-1635.54,11.184 C-1638.7,11.184 -1640.29,12.7684 -1640.29,15.9374 L-1640.29,126.454 C-1640.29,155.767 -1633.42,177.619 -1619.69,192.011 C-1605.96,206.404 -1587.47,213.6 -1564.23,213.6 C-1556.31,213.6 -1549.18,212.808 -1542.84,211.223 C-1536.51,209.639 -1530.96,207.592 -1526.21,205.083 C-1521.45,202.575 -1517.36,199.868 -1513.93,196.963 C-1510.49,194.058 -1507.59,191.285 -1505.21,188.644 L-1502.84,212.411 C-1502.84,213.732 -1502.31,214.788 -1501.25,215.58 C-1500.2,216.373 -1499.01,216.637 -1497.69,216.373 L-1435.5,208.846 C-1432.59,208.318 -1431.14,206.602 -1431.14,203.697 C-1431.67,196.303 -1432.06,187.258 -1432.33,176.563 C-1432.59,165.868 -1432.72,153.258 -1432.72,138.734 L-1432.72,15.9374 Z " fill="#bef200" fill-opacity="1.00" stroke-width="13.65" stroke="#343838" stroke-linecap="square" stroke-linejoin="miter" filter="url(#grcP0BcA)" />				<defs>					<filter id="qYlUi4xq" x="-7.37%" y="-9.82%" width="136.69%" height="134.09%" filterUnits="objectBoundingBox">						<feOffset dx="17.88" dy="6.88" in="SourceAlpha" result="shadowOffsetOuter1" />						<feGaussianBlur stdDeviation="17.99" in="shadowOffsetOuter1" result="shadowBlurOuter1" />						<feFlood flood-color="#343838" flood-opacity="1.00" />						<feComposite in2="shadowBlurOuter1" operator="in" />						<feMerge>							<feMergeNode />							<feMergeNode in="SourceGraphic" />						</feMerge>					</filter>				</defs>				<path d="M-1413.43,11.2665 C-1415.28,11.2665 -1416.66,11.9927 -1417.59,13.4451 C-1418.51,14.8976 -1418.58,16.416 -1417.79,18.0005 L-1343.71,188.727 C-1342.66,191.104 -1342,192.952 -1341.73,194.273 C-1341.47,195.593 -1341.34,196.781 -1341.34,197.838 C-1341.34,199.422 -1342.13,201.271 -1343.71,203.383 C-1345.83,206.024 -1348.99,208.929 -1353.22,212.098 C-1357.45,215.267 -1361.8,217.644 -1366.29,219.228 C-1374.21,222.133 -1381.74,223.849 -1388.87,224.377 C-1390.19,224.377 -1391.31,224.906 -1392.24,225.962 C-1393.16,227.018 -1393.36,228.207 -1392.83,229.527 L-1379.36,290.133 C-1378.84,292.774 -1377.25,294.094 -1374.61,294.094 C-1364.31,293.302 -1352.96,290.925 -1340.54,286.964 C-1328.13,283.003 -1315.98,276.137 -1304.1,266.366 C-1299.08,262.141 -1293.8,256.661 -1288.26,249.927 C-1282.71,243.193 -1276.77,234.28 -1270.43,223.189 C-1264.09,212.098 -1257.36,198.564 -1250.23,182.587 C-1243.1,166.61 -1235.31,147.399 -1226.86,124.952 L-1186.85,17.6044 C-1186.32,16.0199 -1186.45,14.5675 -1187.25,13.2471 C-1188.04,11.9267 -1189.36,11.2665 -1191.21,11.2665 L-1270.04,11.2665 C-1272.41,11.2665 -1273.86,12.4548 -1274.39,14.8315 L-1293.41,96.4317 C-1293.93,98.0161 -1294.46,99.7987 -1294.99,101.779 C-1295.52,103.76 -1295.91,105.806 -1296.18,107.919 C-1296.71,109.239 -1297.1,110.956 -1297.37,113.069 C-1297.63,115.181 -1297.76,116.238 -1297.76,116.238 C-1297.76,115.973 -1298.09,114.719 -1298.75,112.474 C-1299.41,110.23 -1300.21,107.523 -1301.13,104.354 C-1302.05,101.185 -1302.78,98.5443 -1303.31,96.4317 L-1328.26,14.8315 C-1328.53,13.7752 -1329.12,12.917 -1330.05,12.2568 C-1330.97,11.5966 -1331.83,11.2665 -1332.62,11.2665 L-1413.43,11.2665 Z " fill="#bef200" fill-opacity="1.00" stroke-width="13.65" stroke="#343838" stroke-linecap="square" stroke-linejoin="miter" filter="url(#qYlUi4xq)" />				<defs>					<filter id="rW4RD6oF" x="-6.49%" y="-10.36%" width="132.31%" height="135.96%" filterUnits="objectBoundingBox">						<feOffset dx="17.88" dy="6.88" in="SourceAlpha" result="shadowOffsetOuter1" />						<feGaussianBlur stdDeviation="17.99" in="shadowOffsetOuter1" result="shadowBlurOuter1" />						<feFlood flood-color="#343838" flood-opacity="1.00" />						<feComposite in2="shadowBlurOuter1" operator="in" />						<feMerge>							<feMergeNode />							<feMergeNode in="SourceGraphic" />						</feMerge>					</filter>				</defs>				<path d="M-1841.58,515.507 C-1838.41,515.507 -1836.83,513.923 -1836.83,510.754 L-1836.83,401.821 L-1743.74,255.258 C-1742.95,253.41 -1742.88,251.759 -1743.54,250.307 C-1744.2,248.854 -1745.59,248.128 -1747.7,248.128 L-1831.28,248.128 C-1833.4,248.128 -1834.72,249.052 -1835.24,250.901 L-1859.41,308.734 C-1861.26,313.223 -1863.04,317.316 -1864.76,321.014 C-1866.47,324.711 -1868.12,328.408 -1869.71,332.105 C-1871.29,336.594 -1873.01,340.819 -1874.86,344.781 C-1876.18,341.876 -1877.23,339.631 -1878.03,338.047 C-1878.82,336.462 -1879.48,335.01 -1880.01,333.689 C-1880.53,332.369 -1881.13,330.983 -1881.79,329.53 C-1882.45,328.078 -1883.31,325.899 -1884.36,322.994 C-1885.42,320.882 -1886.41,318.571 -1887.33,316.062 C-1888.26,313.553 -1889.38,310.979 -1890.7,308.338 L-1914.86,250.901 C-1915.92,249.052 -1917.24,248.128 -1918.83,248.128 L-2003.59,248.128 C-2005.71,248.128 -2007.09,248.854 -2007.75,250.307 C-2008.41,251.759 -2008.35,253.41 -2007.56,255.258 C-1992.5,280.081 -1977.65,304.905 -1962.99,329.728 C-1948.34,354.552 -1933.48,379.507 -1918.43,404.594 L-1918.43,510.754 C-1918.43,513.923 -1916.98,515.507 -1914.07,515.507 L-1841.58,515.507 Z " fill="#bef200" fill-opacity="1.00" stroke-width="13.65" stroke="#343838" stroke-linecap="square" stroke-linejoin="miter" filter="url(#rW4RD6oF)" />				<defs>					<filter id="sMXQQvpX" x="-5.33%" y="-10.36%" width="126.52%" height="135.96%" filterUnits="objectBoundingBox">						<feOffset dx="17.88" dy="6.88" in="SourceAlpha" result="shadowOffsetOuter1" />						<feGaussianBlur stdDeviation="17.99" in="shadowOffsetOuter1" result="shadowBlurOuter1" />						<feFlood flood-color="#343838" flood-opacity="1.00" />						<feComposite in2="shadowBlurOuter1" operator="in" />						<feMerge>							<feMergeNode />							<feMergeNode in="SourceGraphic" />						</feMerge>					</filter>				</defs>				<path d="M-1491.15,510.754 C-1491.15,512.074 -1490.69,513.196 -1489.76,514.121 C-1488.84,515.045 -1487.72,515.507 -1486.4,515.507 L-1414.7,515.507 C-1411.53,515.507 -1409.95,513.791 -1409.95,510.358 L-1421.83,252.485 C-1421.83,251.165 -1422.29,250.109 -1423.22,249.316 C-1424.14,248.524 -1425.26,248.128 -1426.58,248.128 L-1527.2,248.128 C-1528.25,248.128 -1529.18,248.524 -1529.97,249.316 C-1530.76,250.109 -1531.29,250.901 -1531.55,251.693 C-1534.72,262.52 -1538.02,273.215 -1541.46,283.779 C-1544.89,294.342 -1548.32,305.037 -1551.76,315.864 L-1551.76,315.468 C-1555.19,326.031 -1558.82,338.509 -1562.65,352.901 C-1566.48,367.293 -1570.24,381.487 -1573.94,395.484 C-1576.58,381.487 -1579.42,367.689 -1582.46,354.089 C-1585.49,340.489 -1588.46,328.012 -1591.37,316.656 L-1608.8,251.693 C-1609.33,249.316 -1610.91,248.128 -1613.55,248.128 L-1716.94,248.128 C-1717.99,248.128 -1718.98,248.524 -1719.91,249.316 C-1720.83,250.109 -1721.29,251.165 -1721.29,252.485 L-1735.95,510.358 C-1735.95,513.791 -1734.37,515.507 -1731.2,515.507 L-1663.07,515.507 C-1661.75,515.507 -1660.69,515.045 -1659.9,514.121 C-1659.1,513.196 -1658.71,512.074 -1658.71,510.754 L-1654.75,414.893 C-1654.48,408.82 -1654.22,402.02 -1653.96,394.493 C-1653.69,386.967 -1653.43,379.771 -1653.16,372.905 C-1652.9,367.095 -1652.7,362.21 -1652.57,358.249 C-1652.44,354.287 -1652.24,349.27 -1651.97,343.196 C-1650.13,352.703 -1648.67,360.295 -1647.62,365.973 C-1646.56,371.651 -1645.5,376.668 -1644.45,381.025 C-1643.39,385.383 -1642.34,389.938 -1641.28,394.691 C-1640.22,399.445 -1638.64,405.783 -1636.53,413.705 L-1613.55,506.793 C-1613.02,508.905 -1611.44,509.961 -1608.8,509.961 L-1550.96,509.961 C-1548.32,509.961 -1546.74,508.905 -1546.21,506.793 C-1541.72,490.948 -1537.1,475.301 -1532.35,459.853 C-1527.59,444.404 -1522.97,428.889 -1518.48,413.309 L-1518.88,413.705 C-1515.18,401.821 -1511.29,389.146 -1507.19,375.678 C-1503.1,362.21 -1499.21,348.61 -1495.51,334.878 C-1495.24,345.441 -1495.05,354.221 -1494.91,361.219 C-1494.78,368.218 -1494.65,374.555 -1494.52,380.233 C-1494.39,385.911 -1494.32,391.39 -1494.32,396.672 C-1494.32,401.689 -1494.19,407.763 -1493.92,414.893 L-1491.15,510.754 Z " fill="#bef200" fill-opacity="1.00" stroke-width="13.65" stroke="#343838" stroke-linecap="square" stroke-linejoin="miter" filter="url(#sMXQQvpX)" />			</g>			<path d="M-202.147,-1277.01 L-210.763,-1435.39 C-214.878,-1435.28 -252.972,-1435.39 -257.219,-1435.39 C-293.918,-1435.39 -327.131,-1441.63 -356.857,-1454.1 C-386.583,-1466.58 -412.089,-1484.01 -433.375,-1506.4 C-454.661,-1528.79 -470.992,-1555.21 -482.368,-1585.67 C-493.745,-1616.13 -499.434,-1649.71 -499.434,-1686.41 C-499.434,-1722.38 -493.745,-1755.77 -482.368,-1786.6 C-470.992,-1817.43 -454.661,-1844.03 -433.375,-1866.42 C-412.089,-1888.81 -386.583,-1906.24 -356.857,-1918.72 C-327.131,-1931.19 -293.918,-1937.43 -257.219,-1937.43 C-213.18,-1937.43 -176.48,-1931.19 -147.121,-1918.72 C-117.762,-1906.24 -91.3382,-1887.89 -67.8508,-1863.67 L53.2567,-1995.78 C13.6215,-2032.48 -32.436,-2058.36 -84.9159,-2073.4 C-137.396,-2088.45 -194.83,-2095.97 -257.219,-2095.97 C-318.139,-2095.97 -374.289,-2086.43 -425.668,-2067.35 C-477.047,-2048.26 -521.453,-2020.92 -558.886,-1985.33 C-596.32,-1949.73 -625.495,-1906.61 -646.414,-1855.96 C-667.333,-1805.32 -677.792,-1748.8 -677.792,-1686.41 C-677.792,-1624.02 -667.333,-1567.5 -646.414,-1516.86 C-625.495,-1466.21 -596.32,-1423.09 -558.886,-1387.5 C-521.453,-1351.9 -477.047,-1324.56 -425.668,-1305.47 C-374.289,-1286.39 -318.139,-1276.85 -257.219,-1276.85 C-253.033,-1276.85 -246.968,-1276.78 -242.794,-1276.85 L-202.147,-1277.01 Z " fill="#000000" fill-opacity="1.00" />			<path d="M-250.212,-1431.2 C-248.442,-1420.18 -243.307,-1394.08 -243.307,-1394.08 L-243.307,-1394.08 C-242.366,-1393.54 -241.431,-1393.03 -240.503,-1392.54 L-240.503,-1283.77 C-228.609,-1281.54 -216.758,-1279 -204.833,-1277.13 C-194.547,-1276.59 -184.266,-1276.79 -174.035,-1277.67 C-173.621,-1277.7 -173.184,-1277.77 -172.766,-1277.8 C-171.542,-1277.91 -170.314,-1278 -169.092,-1278.13 C-168.498,-1278.19 -167.889,-1278.26 -167.288,-1278.33 C-161.121,-1279 -154.548,-1279.93 -147.178,-1281.2 C-112.137,-1287.27 -65.6638,-1306.84 -33.6078,-1329.04 C-22.3884,-1336.81 -5.81308,-1346.63 3.20314,-1350.89 C25.162,-1361.24 48.1368,-1383.77 53.3753,-1399.99 C58.1402,-1414.74 57.9009,-1423.63 52.3728,-1436.13 C49.8459,-1441.84 47.0344,-1453.75 46.0931,-1462.59 C43.5587,-1486.39 32.8218,-1517.17 19.5705,-1538.55 C16.6558,-1543.25 13.0663,-1549.5 11.621,-1552.44 C10.1755,-1555.38 2.78748,-1566.93 -4.81313,-1578.1 C-12.4146,-1589.27 -25.631,-1608.99 -34.2086,-1621.92 C-42.7859,-1634.86 -51.1201,-1647.36 -52.7147,-1649.71 C-54.3094,-1652.07 -61.0953,-1665.53 -67.7467,-1679.64 C-88.2135,-1723.06 -88.8346,-1724.14 -97.9432,-1729.21 C-102.613,-1731.81 -113.009,-1736.04 -121.059,-1738.63 C-129.419,-1741.32 -133.676,-1742.4 -139.565,-1742.31 L-139.562,-1742.31 L-139.55,-1742.31 C-143.083,-1742.26 -147.185,-1741.79 -153.178,-1740.97 C-177.265,-1737.71 -191.197,-1734.58 -192.698,-1732.16 C-193.472,-1731.68 -194.065,-1731.19 -194.336,-1730.75 C-194.346,-1730.73 -194.356,-1730.72 -194.367,-1730.7 C-195.583,-1730.2 -197.352,-1729.88 -199.208,-1729.88 C-208.344,-1729.89 -224.77,-1723.09 -230.808,-1716.79 C-235.211,-1712.19 -236.564,-1708.29 -238.825,-1691.14 C-239.257,-1688.53 -239.556,-1685.88 -239.76,-1683.19 C-239.782,-1682.9 -239.807,-1682.61 -239.827,-1682.32 C-241.178,-1670.66 -241.763,-1661.72 -241.163,-1654.73 C-241.17,-1654.64 -241.157,-1654.55 -241.163,-1654.46 C-241.229,-1630.83 -216.875,-1618.76 -196.47,-1615.98 C-191.163,-1613.32 -186.532,-1613.48 -182.174,-1614.78 C-177.666,-1614.54 -175.362,-1615.65 -170.349,-1618.65 C-166.831,-1620.76 -163.438,-1622.14 -159.86,-1622.79 C-156.252,-1620.02 -151.456,-1621.12 -147.367,-1623.33 C-139.595,-1624.05 -135.144,-1627.37 -132.803,-1634.08 L-131.066,-1639.03 C-122.926,-1622.26 -120.947,-1602.47 -117.369,-1584.38 C-116.84,-1576.44 -116.809,-1568.53 -117.036,-1560.6 C-117.295,-1555.46 -117.673,-1549.55 -118.171,-1541.96 C-118.641,-1534.8 -119.023,-1527.89 -119.441,-1520.98 C-119.642,-1517.63 -119.867,-1514.12 -120.042,-1511.09 C-120.188,-1508.57 -120.337,-1506.06 -120.442,-1503.54 C-120.465,-1503.03 -120.491,-1502.52 -120.513,-1502 C-120.705,-1498.35 -120.983,-1493.36 -121.047,-1491.52 L-121.381,-1481.83 C-121.801,-1481.51 -122.29,-1481.01 -122.784,-1480.16 L-126.86,-1484.97 C-139.566,-1499.98 -148.134,-1504.35 -169.817,-1506.75 C-189.068,-1508.88 -201.18,-1503.69 -221.057,-1484.7 C-221.057,-1484.7 -228.611,-1476.99 -238.825,-1463.87 C-249.038,-1450.75 -255.956,-1439.37 -259.993,-1431.2 C-264.029,-1423.03 -258.425,-1429.16 -254.971,-1431.2 C-251.517,-1433.24 -251.981,-1442.23 -250.212,-1431.2 Z " fill="#000000" fill-opacity="1.00" />			<defs>				<filter id="QJ4QXReH" x="-6.72%" y="-9.71%" width="133.46%" height="133.73%" filterUnits="objectBoundingBox">					<feOffset dx="49.70" dy="19.11" in="SourceAlpha" result="shadowOffsetOuter1" />					<feGaussianBlur stdDeviation="50.00" in="shadowOffsetOuter1" result="shadowBlurOuter1" />					<feFlood flood-color="#343838" flood-opacity="1.00" />					<feComposite in2="shadowBlurOuter1" operator="in" />					<feMerge>						<feMergeNode />						<feMergeNode in="SourceGraphic" />					</feMerge>				</filter>			</defs>			<path d="M-2369.36,439.643 C-2405.82,439.575 -2438.83,433.336 -2468.4,420.926 C-2498.12,408.449 -2523.63,391.017 -2544.92,368.63 C-2566.2,346.244 -2582.53,319.82 -2593.91,289.36 C-2605.29,258.899 -2610.97,225.32 -2610.97,188.62 C-2610.97,152.655 -2605.29,119.259 -2593.91,88.4315 C-2582.53,57.6042 -2566.2,30.9972 -2544.92,8.6107 C-2523.63,-13.7758 -2498.12,-31.2079 -2468.4,-43.6857 C-2438.67,-56.1634 -2405.46,-62.4023 -2368.76,-62.4023 C-2324.72,-62.4023 -2288.02,-56.1634 -2258.66,-43.6857 C-2229.3,-31.2079 -2202.88,-12.8583 -2179.39,11.3631 L-2058.28,-120.754 C-2097.92,-157.453 -2143.98,-183.326 -2196.46,-198.373 C-2248.94,-213.42 -2306.37,-220.943 -2368.76,-220.943 C-2429.68,-220.943 -2485.83,-211.401 -2537.21,-192.318 C-2588.59,-173.234 -2632.99,-145.893 -2670.43,-110.295 C-2707.86,-74.6965 -2737.04,-31.5749 -2757.95,19.07 C-2778.87,69.7149 -2789.33,126.232 -2789.33,188.62 C-2789.33,251.009 -2778.87,307.526 -2757.95,358.171 C-2737.04,408.816 -2707.86,451.937 -2670.43,487.536 C-2632.99,523.134 -2588.59,550.475 -2537.21,569.558 C-2485.83,588.642 -2429.68,598.184 -2368.76,598.184 C-2364.57,598.184 -2358.51,598.246 -2354.33,598.184 L-2313.72,598.022 C-2304.32,598.405 -2294.93,598.169 -2285.58,597.363 C-2285.16,597.335 -2284.72,597.263 -2284.31,597.233 C-2283.08,597.12 -2281.85,597.03 -2280.63,596.899 C-2280.04,596.843 -2279.43,596.768 -2278.83,596.698 C-2272.66,596.03 -2266.09,595.101 -2258.72,593.826 C-2223.68,587.763 -2177.2,568.187 -2145.15,545.992 C-2133.93,538.224 -2117.35,528.399 -2108.34,524.146 C-2086.38,513.787 -2063.4,491.261 -2058.17,475.042 C-2053.4,460.288 -2053.64,451.396 -2059.17,438.899 C-2061.69,433.187 -2064.51,421.284 -2065.45,412.444 C-2067.98,388.641 -2078.72,357.862 -2091.97,336.484 C-2094.88,331.781 -2098.47,325.528 -2099.92,322.588 C-2101.36,319.649 -2108.75,308.104 -2116.35,296.934 C-2123.96,285.764 -2137.17,266.043 -2145.75,253.109 C-2154.33,240.175 -2162.66,227.669 -2164.26,225.317 C-2165.85,222.965 -2172.64,209.498 -2179.29,195.388 C-2199.75,151.97 -2200.38,150.89 -2209.48,145.817 C-2214.15,143.216 -2224.55,138.986 -2232.6,136.397 C-2240.96,133.709 -2245.22,132.63 -2251.11,132.723 L-2251.1,132.719 L-2251.09,132.721 C-2254.62,132.774 -2258.73,133.244 -2264.72,134.057 C-2288.81,137.324 -2302.74,140.455 -2304.24,142.875 C-2305.01,143.348 -2305.61,143.842 -2305.88,144.28 C-2305.89,144.296 -2305.9,144.312 -2305.91,144.328 C-2307.12,144.83 -2308.89,145.151 -2310.75,145.147 C-2319.88,145.137 -2336.31,151.939 -2342.35,158.241 C-2346.75,162.837 -2348.1,166.738 -2350.37,183.895 C-2350.8,186.497 -2351.1,189.154 -2351.3,191.845 C-2351.32,192.133 -2351.35,192.425 -2351.37,192.713 C-2352.72,204.373 -2353.3,213.312 -2352.7,220.304 C-2352.71,220.388 -2352.7,220.484 -2352.7,220.571 C-2352.77,244.198 -2328.42,256.274 -2308.01,259.052 C-2302.7,261.708 -2298.07,261.555 -2293.71,260.254 C-2289.21,260.493 -2286.9,259.382 -2281.89,256.379 C-2278.37,254.272 -2274.98,252.886 -2271.4,252.237 C-2267.79,255.013 -2263,253.908 -2258.91,251.703 C-2251.14,250.98 -2246.68,247.662 -2244.34,240.947 L-2242.61,236.003 C-2234.47,252.772 -2232.49,272.557 -2228.91,290.652 C-2228.38,298.593 -2228.35,306.496 -2228.58,314.435 C-2228.84,319.567 -2229.21,325.485 -2229.71,333.075 C-2230.18,340.233 -2230.56,347.143 -2230.98,354.053 C-2231.18,357.398 -2231.41,360.907 -2231.58,363.94 C-2231.73,366.461 -2231.88,368.967 -2231.98,371.489 C-2232.01,372.001 -2232.03,372.514 -2232.05,373.026 C-2232.25,376.682 -2232.52,381.674 -2232.59,383.514 L-2232.92,393.201 C-2233.34,393.52 -2233.83,394.023 -2234.32,394.872 L-2238.4,390.062 C-2251.11,375.051 -2259.67,370.683 -2281.36,368.283 C-2300.61,366.151 -2312.72,371.338 -2332.6,390.329 C-2332.6,390.329 -2340.15,398.036 -2350.37,411.159 C-2358.94,422.17 -2365.18,431.954 -2369.36,439.643 L-2369.36,439.643 Z " fill="#bef200" fill-opacity="1.00" stroke-width="13.65" stroke="#343838" stroke-linecap="square" stroke-linejoin="miter" filter="url(#QJ4QXReH)" />			<path d="M42.9749,570.183 C-39.8617,570.029 -114.864,555.855 -182.031,527.662 C-249.566,499.314 -307.513,459.71 -355.872,408.85 C-404.23,357.99 -441.333,297.958 -467.18,228.755 C-493.027,159.552 -505.95,83.2626 -505.95,-0.114407 C-505.95,-81.8238 -493.027,-157.697 -467.18,-227.734 C-441.333,-297.77 -404.23,-358.218 -355.872,-409.078 C-307.513,-459.938 -249.566,-499.542 -182.031,-527.891 C-114.495,-556.239 -39.0393,-570.413 44.3377,-570.413 C144.39,-570.413 227.767,-556.239 294.469,-527.891 C361.17,-499.542 421.202,-457.854 474.563,-402.825 L749.707,-702.982 C659.66,-786.359 555.022,-845.14 435.792,-879.324 C316.563,-913.509 186.079,-930.601 44.3377,-930.601 C-94.0681,-930.601 -221.635,-908.923 -338.363,-865.567 C-455.09,-822.211 -555.976,-760.095 -641.021,-679.22 C-726.065,-598.344 -792.35,-500.376 -839.875,-385.316 C-887.4,-270.256 -911.162,-141.855 -911.162,-0.114408 C-911.162,141.626 -887.4,270.027 -839.875,385.087 C-792.35,500.147 -726.065,598.115 -641.021,678.991 C-555.976,759.867 -455.09,821.982 -338.363,865.338 C-221.635,908.694 -94.0681,930.372 44.3377,930.372 C53.8482,930.372 67.6259,930.515 77.1097,930.372 L169.379,930.005 C190.737,930.875 212.076,930.339 233.322,928.508 C234.264,928.443 235.255,928.282 236.207,928.212 C238.987,927.955 241.777,927.752 244.553,927.453 C245.902,927.327 247.285,927.155 248.652,926.998 C262.662,925.481 277.596,923.368 294.338,920.472 C373.949,906.697 479.531,862.223 552.359,811.798 C577.849,794.15 615.506,771.829 635.99,762.165 C685.878,738.633 738.075,687.455 749.976,650.606 C760.802,617.088 760.258,596.885 747.699,568.495 C741.958,555.517 735.57,528.475 733.432,508.391 C727.674,454.313 703.281,384.386 673.175,335.818 C666.553,325.133 658.398,310.925 655.115,304.247 C651.831,297.569 635.046,271.34 617.778,245.964 C600.508,220.587 570.482,175.782 550.994,146.398 C531.508,117.013 512.573,88.5995 508.95,83.2564 C505.327,77.9138 489.91,47.3165 474.799,15.2605 C428.301,-83.3804 426.89,-85.8334 406.196,-97.36 C395.586,-103.269 371.968,-112.879 353.678,-118.76 C334.685,-124.868 325.015,-127.319 311.634,-127.109 L311.643,-127.117 L311.67,-127.113 C303.642,-126.992 294.324,-125.924 280.707,-124.077 C225.985,-116.655 194.332,-109.541 190.922,-104.043 C189.163,-102.969 187.816,-101.846 187.201,-100.852 C187.179,-100.815 187.155,-100.779 187.13,-100.743 C184.368,-99.6016 180.349,-98.8732 176.132,-98.8821 C155.376,-98.9049 118.059,-83.4512 104.34,-69.1343 C94.3366,-58.6924 91.2639,-49.8285 86.1269,-10.8509 C85.1438,-4.93959 84.4659,1.09712 84.0021,7.21079 C83.9518,7.86557 83.8951,8.52833 83.8493,9.18384 C80.7803,35.6741 79.4524,55.9832 80.8138,71.8678 C80.7996,72.0577 80.828,72.2761 80.8138,72.4749 C80.665,126.153 135.994,153.587 182.353,159.899 C194.409,165.933 204.93,165.587 214.832,162.631 C225.073,163.173 230.308,160.649 241.698,153.827 C249.69,149.04 257.398,145.891 265.527,144.417 C273.723,150.723 284.619,148.213 293.909,143.203 C311.568,141.561 321.679,134.023 326.999,118.766 L330.945,107.535 C349.437,145.632 353.933,190.58 362.061,231.69 C363.263,249.733 363.335,267.687 362.82,285.724 C362.23,297.384 361.372,310.827 360.24,328.071 C359.172,344.335 358.303,360.034 357.356,375.731 C356.897,383.332 356.387,391.304 355.99,398.194 C355.657,403.921 355.32,409.616 355.08,415.345 C355.027,416.509 354.97,417.673 354.92,418.837 C354.483,427.143 353.851,438.485 353.706,442.665 L352.947,464.673 C351.994,465.398 350.883,466.539 349.759,468.468 L340.499,457.54 C311.632,423.437 292.167,413.514 242.906,408.06 C199.17,403.217 171.651,415.001 126.493,458.147 C126.493,458.147 109.331,475.657 86.1269,505.47 C66.6564,530.487 52.458,552.715 42.9749,570.183 L42.9749,570.183 Z " fill="#bef200" fill-opacity="1.00" stroke-width="13.65" stroke="#343838" stroke-linecap="square" stroke-linejoin="miter" />			<path d="M85.5118,-1637.83 C143.341,-1605.19 172.334,-1652.6 181.9,-1663.74 C173.581,-1616.92 109.921,-1618.88 108.877,-1599.83 C124.296,-1575.93 215.134,-1578.11 237.536,-1580.41 C235.585,-1600.6 228.29,-1602.15 203.229,-1625.32 C217.359,-1617.08 285.061,-1610.29 322.473,-1625.5 C333.384,-1629.5 339.161,-1639.79 343.082,-1644.92 C343.33,-1646.28 344.024,-1647.61 344.869,-1648.13 C348.142,-1650.16 346.975,-1664.1 342.844,-1672.2 C340.579,-1676.64 338.149,-1686.57 337.186,-1695.48 C334.759,-1717.94 325.449,-1744.99 313.421,-1764.4 C310.821,-1768.59 307.621,-1774.17 306.332,-1776.79 C305.044,-1779.41 298.458,-1789.7 291.68,-1799.66 C284.904,-1809.62 273.093,-1827.2 265.474,-1838.73 C257.854,-1850.26 250.296,-1861.2 248.677,-1863.03 C247.058,-1864.87 245.758,-1866.91 245.758,-1867.56 C245.758,-1868.2 241.578,-1877.42 236.467,-1888.05 C231.356,-1898.67 225.208,-1911.91 222.828,-1917.47 C217.989,-1928.78 213.601,-1931.75 191.618,-1938.85 C181.213,-1942.21 176.365,-1942.79 166.066,-1941.77 C151.94,-1940.38 135.421,-1936.07 133.307,-1935.52 C131.193,-1934.97 128.992,-1933.76 128.422,-1932.84 C127.853,-1931.92 124.928,-1931.17 121.931,-1931.17 C115.645,-1929.95 105.229,-1927.68 99.7732,-1923.07 C96.8644,-1920.6 96.0802,-1918.18 96.7354,-1913.72 C96.8805,-1912.73 96.9245,-1912.01 96.9737,-1911.34 C99.2595,-1911.68 102.25,-1913.37 104.479,-1915.74 C117.194,-1903.6 116.101,-1872.01 119.011,-1866.61 C119.256,-1859.07 126.253,-1835.75 125.385,-1856.3 C128.517,-1869.21 117.922,-1890.99 118.714,-1896.86 C139.714,-1913.66 136.903,-1876.85 140.87,-1864.52 C141.841,-1857.6 149.983,-1830.78 152.544,-1851.36 C155.175,-1861.21 138.759,-1896.46 157.369,-1877.51 C159.516,-1868.15 165.943,-1856.06 168.031,-1847.37 C169.7,-1847.96 171.449,-1848.82 173.391,-1850.23 C177.15,-1851.64 179.191,-1856.84 180.062,-1859.16 C178.365,-1861.96 176.458,-1864.62 174.225,-1867.14 C170.985,-1874.71 187.276,-1861.09 190.187,-1872.74 C197.993,-1881.52 201.421,-1899.92 210.38,-1882.75 C218.502,-1866.77 231.5,-1853 238.195,-1836.05 C249.531,-1811.61 214.137,-1861.42 218.063,-1838.08 C205.778,-1784.8 242.337,-1659.12 307.882,-1669.81 C329.607,-1673.35 284.333,-1632.6 229.439,-1650.21 C218.087,-1655.55 212.044,-1666.11 201.981,-1677.85 C191.627,-1693.39 193.604,-1700.06 188.996,-1706.38 C188.061,-1707.1 187.035,-1709.24 183.755,-1713.94 C173.147,-1721.04 171.412,-1726.55 156.893,-1730.09 C153.945,-1730.78 154.543,-1730.68 149.686,-1731.63 C128.314,-1734.28 101.999,-1714.52 92.0302,-1669.15 C91.367,-1679.15 88.4637,-1686.76 85.5118,-1692.25 L85.5118,-1637.83 L85.5118,-1637.83 Z " fill="#ffffff" fill-opacity="1.00" />			<path d="M547.233,-2095.96 L547.233,-2175.32 C605.166,-2142.51 634.203,-2190 643.778,-2201.15 C635.459,-2154.32 571.799,-2156.28 570.755,-2137.23 C586.174,-2113.34 677.012,-2115.52 699.414,-2117.82 C697.463,-2138.01 690.168,-2139.55 665.107,-2162.73 C679.237,-2154.49 746.939,-2147.69 784.351,-2162.91 C795.262,-2166.91 801.038,-2177.19 804.96,-2182.32 C805.208,-2183.69 805.902,-2185.02 806.747,-2185.54 C810.02,-2187.56 808.853,-2201.51 804.722,-2209.6 C802.456,-2214.04 800.027,-2223.98 799.064,-2232.89 C796.637,-2255.34 787.327,-2282.4 775.298,-2301.8 C772.699,-2306 769.499,-2311.57 768.21,-2314.19 C766.922,-2316.81 760.335,-2327.11 753.558,-2337.07 C746.782,-2347.02 734.971,-2364.61 727.352,-2376.14 C719.732,-2387.67 712.174,-2398.6 710.555,-2400.44 C708.936,-2402.27 707.636,-2404.32 707.636,-2404.97 C707.636,-2405.61 703.456,-2414.83 698.345,-2425.45 C693.233,-2436.08 687.086,-2449.32 684.706,-2454.88 C679.867,-2466.19 675.479,-2469.16 653.496,-2476.26 C643.091,-2479.62 638.243,-2480.19 627.943,-2479.18 C613.818,-2477.79 597.299,-2473.48 595.185,-2472.93 C593.071,-2472.37 590.87,-2471.17 590.3,-2470.25 C589.731,-2469.32 586.805,-2468.58 583.809,-2468.58 C577.523,-2467.36 567.107,-2465.08 561.651,-2460.48 C558.742,-2458.01 557.958,-2455.59 558.613,-2451.13 C558.758,-2450.14 558.802,-2449.42 558.851,-2448.74 C561.137,-2449.09 564.128,-2450.78 566.356,-2453.15 C579.072,-2441.01 577.979,-2409.42 580.889,-2404.01 C581.134,-2396.47 588.131,-2373.16 587.263,-2393.71 C590.395,-2406.61 579.8,-2428.4 580.592,-2434.27 C601.592,-2451.06 598.781,-2414.25 602.748,-2401.93 C603.718,-2395.01 611.86,-2368.19 614.422,-2388.76 C617.053,-2398.62 600.637,-2433.87 619.247,-2414.91 C621.394,-2405.56 627.821,-2393.47 629.909,-2384.77 C631.578,-2385.37 633.327,-2386.23 635.269,-2387.63 C639.028,-2389.04 641.069,-2394.25 641.94,-2396.57 C640.243,-2399.37 638.336,-2402.03 636.103,-2404.55 C632.863,-2412.12 649.153,-2398.5 652.065,-2410.15 C659.871,-2418.93 663.299,-2437.33 672.257,-2420.15 C680.379,-2404.18 693.378,-2390.41 700.073,-2373.46 C711.409,-2349.01 676.015,-2398.83 679.94,-2375.48 C667.656,-2322.21 704.215,-2196.53 769.76,-2207.22 C791.485,-2210.76 746.211,-2170 691.317,-2187.62 C679.965,-2192.95 673.922,-2203.52 663.859,-2215.26 C653.504,-2230.79 655.481,-2237.46 650.874,-2243.79 C649.939,-2244.51 648.912,-2246.65 645.632,-2251.35 C635.025,-2258.45 633.29,-2263.96 618.771,-2267.49 C615.823,-2268.19 616.421,-2268.09 611.564,-2269.04 C590.192,-2271.68 563.877,-2251.93 553.908,-2206.56 C553.233,-2216.73 550.238,-2224.44 547.233,-2229.94 L547.233,-2240.91 L549.739,-2239.62 L564.57,-2253.8 C582.291,-2270.73 593.09,-2275.35 610.253,-2273.45 C629.585,-2271.31 637.223,-2267.42 648.551,-2254.03 L652.185,-2249.75 C652.626,-2250.5 653.062,-2250.95 653.436,-2251.23 L653.734,-2259.87 C653.791,-2261.51 654.039,-2265.96 654.21,-2269.22 C654.23,-2269.68 654.252,-2270.14 654.273,-2270.59 C654.367,-2272.84 654.499,-2275.07 654.63,-2277.32 C654.786,-2280.03 654.986,-2283.15 655.166,-2286.14 C655.538,-2292.3 655.879,-2298.46 656.298,-2304.84 C656.742,-2311.61 657.079,-2316.88 657.31,-2321.46 C657.512,-2328.54 657.484,-2335.58 657.013,-2342.66 C653.823,-2358.8 652.059,-2376.43 644.802,-2391.38 L643.253,-2386.98 C641.166,-2380.99 637.198,-2378.03 630.268,-2377.39 C626.622,-2375.42 622.347,-2374.44 619.13,-2376.91 C615.94,-2376.33 612.916,-2375.1 609.779,-2373.22 C605.309,-2370.54 603.255,-2369.55 599.237,-2369.76 C595.35,-2368.6 591.222,-2368.47 586.491,-2370.84 C579.746,-2371.75 572.517,-2373.81 566.093,-2377.11 L566.093,-2361.68 L292.261,-2361.68 L292.261,-2095.96 L547.233,-2095.96 L547.233,-2095.96 Z " fill="#ffffff" fill-opacity="1.00" />			<path d="M472.254,-2033.83 L460.949,-2033.83 L460.949,-2062.11 L472.254,-2062.11 L472.254,-2033.83 Z " fill="#ffffff" fill-opacity="1.00" />		</g>	</svg>